<svg width="28" height="28" viewBox="0 0 28 28" fill="none" xmlns="http://www.w3.org/2000/svg">
<path d="M24.5 18.6667H8.16671C7.85729 18.6667 7.56054 18.5437 7.34175 18.325C7.12296 18.1062 7.00004 17.8094 7.00004 17.5C7.00004 17.1906 7.12296 16.8938 7.34175 16.675C7.56054 16.4562 7.85729 16.3333 8.16671 16.3333H20.3467C21.1268 16.3334 21.8846 16.0728 22.4996 15.593C23.1147 15.1132 23.5519 14.4416 23.7417 13.685L25.6667 6.11333C25.7104 5.94114 25.7142 5.76124 25.6778 5.58736C25.6414 5.41348 25.5658 5.25021 25.4567 5.10999C25.3432 4.96618 25.1975 4.85111 25.0313 4.77409C24.8651 4.69707 24.6831 4.66027 24.5 4.66666H7.88671C7.64601 3.98585 7.20062 3.39616 6.61162 2.97842C6.02261 2.56069 5.31881 2.33536 4.59671 2.33333H3.50004C3.19062 2.33333 2.89388 2.45624 2.67508 2.67504C2.45629 2.89383 2.33337 3.19058 2.33337 3.49999C2.33337 3.80941 2.45629 4.10616 2.67508 4.32495C2.89388 4.54375 3.19062 4.66666 3.50004 4.66666H4.59671C4.86321 4.6589 5.12434 4.74265 5.33661 4.90398C5.54889 5.0653 5.6995 5.29447 5.76337 5.55333L5.83337 6.11333L7.85171 14C6.92345 14.0418 6.0498 14.4506 5.42296 15.1365C4.79612 15.8224 4.46744 16.7292 4.50921 17.6575C4.55098 18.5858 4.95979 19.4594 5.6457 20.0862C6.33162 20.7131 7.23845 21.0418 8.16671 21H8.37671C8.18483 21.5286 8.12318 22.0958 8.19696 22.6533C8.27074 23.2108 8.47779 23.7424 8.80058 24.2029C9.12336 24.6635 9.55237 25.0394 10.0513 25.299C10.5502 25.5586 11.1043 25.6941 11.6667 25.6941C12.2291 25.6941 12.7832 25.5586 13.2821 25.299C13.781 25.0394 14.2101 24.6635 14.5328 24.2029C14.8556 23.7424 15.0627 23.2108 15.1365 22.6533C15.2102 22.0958 15.1486 21.5286 14.9567 21H17.71C17.5182 21.5286 17.4565 22.0958 17.5303 22.6533C17.6041 23.2108 17.8111 23.7424 18.1339 24.2029C18.4567 24.6635 18.8857 25.0394 19.3846 25.299C19.8835 25.5586 20.4376 25.6941 21 25.6941C21.5624 25.6941 22.1166 25.5586 22.6155 25.299C23.1144 25.0394 23.5434 24.6635 23.8662 24.2029C24.189 23.7424 24.396 23.2108 24.4698 22.6533C24.5436 22.0958 24.4819 21.5286 24.29 21H24.5C24.8095 21 25.1062 20.8771 25.325 20.6583C25.5438 20.4395 25.6667 20.1427 25.6667 19.8333C25.6667 19.5239 25.5438 19.2272 25.325 19.0084C25.1062 18.7896 24.8095 18.6667 24.5 18.6667ZM23.0067 6.99999L21.4784 13.1133C21.4145 13.3722 21.2639 13.6014 21.0516 13.7627C20.8393 13.924 20.5782 14.0078 20.3117 14H10.2434L8.49337 6.99999H23.0067ZM11.6667 23.3333C11.436 23.3333 11.2104 23.2649 11.0185 23.1367C10.8267 23.0085 10.6771 22.8263 10.5888 22.6131C10.5005 22.3999 10.4774 22.1654 10.5225 21.9391C10.5675 21.7127 10.6786 21.5049 10.8417 21.3417C11.0049 21.1785 11.2128 21.0674 11.4391 21.0224C11.6654 20.9774 11.9 21.0005 12.1132 21.0888C12.3264 21.1771 12.5086 21.3266 12.6368 21.5185C12.7649 21.7104 12.8334 21.9359 12.8334 22.1667C12.8334 22.4761 12.7105 22.7728 12.4917 22.9916C12.2729 23.2104 11.9761 23.3333 11.6667 23.3333ZM21 23.3333C20.7693 23.3333 20.5437 23.2649 20.3519 23.1367C20.16 23.0085 20.0105 22.8263 19.9222 22.6131C19.8339 22.3999 19.8108 22.1654 19.8558 21.9391C19.9008 21.7127 20.0119 21.5049 20.1751 21.3417C20.3382 21.1785 20.5461 21.0674 20.7724 21.0224C20.9987 20.9774 21.2333 21.0005 21.4465 21.0888C21.6597 21.1771 21.8419 21.3266 21.9701 21.5185C22.0983 21.7104 22.1667 21.9359 22.1667 22.1667C22.1667 22.4761 22.0438 22.7728 21.825 22.9916C21.6062 23.2104 21.3095 23.3333 21 23.3333Z" fill="black"/>
</svg>
