<svg width="39" height="37" viewBox="0 0 39 37" fill="none">
<path d="M33.9625 3.0835H5.0375C4.56343 3.0835 4.10877 3.26216 3.77355 3.58019C3.43833 3.89822 3.25 4.32957 3.25 4.77933V32.221C3.25 32.4437 3.29624 32.6642 3.38607 32.87C3.4759 33.0757 3.60756 33.2627 3.77355 33.4201C3.93953 33.5776 4.13658 33.7025 4.35345 33.7877C4.57032 33.873 4.80276 33.9168 5.0375 33.9168H20.605V21.9689H16.38V17.3439H20.605V13.8752C20.5175 13.0608 20.6188 12.2381 20.9019 11.4648C21.185 10.6915 21.643 9.98638 22.2438 9.3988C22.8445 8.81122 23.5735 8.35544 24.3796 8.06345C25.1857 7.77145 26.0493 7.6503 26.91 7.7085C28.1748 7.70111 29.439 7.76288 30.6962 7.8935V12.056H28.1125C26.065 12.056 25.675 12.981 25.675 14.3222V17.2977H30.55L29.9163 21.9227H25.675V33.9168H33.9625C34.1972 33.9168 34.4297 33.873 34.6465 33.7877C34.8634 33.7025 35.0605 33.5776 35.2265 33.4201C35.3924 33.2627 35.5241 33.0757 35.6139 32.87C35.7038 32.6642 35.75 32.4437 35.75 32.221V4.77933C35.75 4.55663 35.7038 4.33611 35.6139 4.13036C35.5241 3.92461 35.3924 3.73767 35.2265 3.58019C35.0605 3.42272 34.8634 3.29781 34.6465 3.21258C34.4297 3.12736 34.1972 3.0835 33.9625 3.0835Z" fill="#332323"/>
</svg>
