<svg width="38" height="37" viewBox="0 0 38 37" fill="none" xmlns="http://www.w3.org/2000/svg">
<path d="M19 14.6768C18.2234 14.6768 17.4642 14.9011 16.8185 15.3212C16.1727 15.7413 15.6694 16.3384 15.3722 17.037C15.075 17.7357 14.9973 18.5044 15.1488 19.2461C15.3003 19.9877 15.6743 20.669 16.2234 21.2037C16.7726 21.7384 17.4723 22.1025 18.2339 22.25C18.9956 22.3976 19.7852 22.3218 20.5027 22.0325C21.2202 21.7431 21.8334 21.253 22.2649 20.6243C22.6964 19.9956 22.9267 19.2563 22.9267 18.5002C22.9267 17.9981 22.8251 17.5009 22.6278 17.037C22.4304 16.5732 22.1412 16.1517 21.7766 15.7967C21.412 15.4416 20.9791 15.16 20.5027 14.9679C20.0263 14.7757 19.5157 14.6768 19 14.6768ZM34.7225 10.8997C34.7142 9.70921 34.489 8.52954 34.0575 7.41558C33.7397 6.60044 33.248 5.86018 32.6148 5.24366C31.9816 4.62713 31.2213 4.14835 30.3842 3.83891C29.2401 3.41875 28.0286 3.19952 26.8058 3.19141C24.7633 3.0835 24.1617 3.0835 19 3.0835C13.8383 3.0835 13.2367 3.0835 11.1942 3.19141C9.97146 3.19952 8.75991 3.41875 7.61584 3.83891C6.77867 4.14835 6.0184 4.62713 5.38522 5.24366C4.75203 5.86018 4.26031 6.60044 3.94251 7.41558C3.51099 8.52954 3.28583 9.70921 3.2775 10.8997C3.16667 12.8885 3.16667 13.4743 3.16667 18.5002C3.16667 23.526 3.16667 24.1118 3.2775 26.1006C3.29455 27.2953 3.5194 28.4786 3.94251 29.6002C4.2589 30.4116 4.75021 31.1475 5.38334 31.7585C6.01381 32.3787 6.7757 32.8575 7.61584 33.1614C8.75991 33.5816 9.97146 33.8008 11.1942 33.8089C13.2367 33.9168 13.8383 33.9168 19 33.9168C24.1617 33.9168 24.7633 33.9168 26.8058 33.8089C28.0286 33.8008 29.2401 33.5816 30.3842 33.1614C31.2243 32.8575 31.9862 32.3787 32.6167 31.7585C33.2498 31.1475 33.7411 30.4116 34.0575 29.6002C34.4886 28.4807 34.7137 27.2961 34.7225 26.1006C34.8333 24.1118 34.8333 23.526 34.8333 18.5002C34.8333 13.4743 34.8333 12.8885 34.7225 10.8997ZM30.7008 23.2331C30.65 24.1844 30.4415 25.1216 30.0833 26.0081C29.776 26.7476 29.319 27.4194 28.7396 27.9835C28.1603 28.5476 27.4703 28.9925 26.7108 29.2918C25.7917 29.6211 24.8239 29.8033 23.845 29.8314C22.5942 29.8314 22.2617 29.8314 19 29.8314C15.7383 29.8314 15.4058 29.8314 14.155 29.8314C13.1761 29.8033 12.2083 29.6211 11.2892 29.2918C10.504 29.0077 9.79494 28.5545 9.215 27.966C8.64131 27.4129 8.19826 26.7448 7.91667 26.0081C7.57714 25.1141 7.39513 24.1707 7.37834 23.2177C7.37834 21.9997 7.37834 21.676 7.37834 18.5002C7.37834 15.3243 7.37834 15.0006 7.37834 13.7827C7.39513 12.8296 7.57714 11.8862 7.91667 10.9922C8.20845 10.2277 8.67394 9.53734 9.27834 8.97266C9.84887 8.41708 10.5343 7.98614 11.2892 7.7085C12.2083 7.37921 13.1761 7.19699 14.155 7.16891C15.4058 7.16891 15.7383 7.16891 19 7.16891C22.2617 7.16891 22.5942 7.16891 23.845 7.16891C24.8239 7.19699 25.7917 7.37921 26.7108 7.7085C27.496 7.9926 28.2051 8.44584 28.785 9.03433C29.3587 9.5874 29.8018 10.2555 30.0833 10.9922C30.4215 11.8872 30.6087 12.8295 30.6375 13.7827C30.6375 15.0006 30.6375 15.3243 30.6375 18.5002C30.6375 21.676 30.7483 21.9997 30.7008 23.2177V23.2331ZM28.1675 11.7631C27.979 11.2651 27.6818 10.8129 27.2963 10.4376C26.9109 10.0623 26.4464 9.77289 25.935 9.58933C25.2327 9.35231 24.4931 9.23751 23.75 9.25016C22.515 9.25016 22.1667 9.25016 19 9.25016C15.8333 9.25016 15.485 9.25016 14.25 9.25016C13.5031 9.25727 12.7634 9.39297 12.065 9.651C11.5614 9.82622 11.1019 10.1038 10.7169 10.4653C10.332 10.8268 10.0305 11.2639 9.8325 11.7477C9.60257 12.4343 9.49023 13.153 9.5 13.8752C9.5 15.0777 9.5 15.4168 9.5 18.5002C9.5 21.5835 9.5 21.9227 9.5 23.1252C9.5157 23.8516 9.65481 24.5705 9.91167 25.2527C10.1002 25.7506 10.3974 26.2029 10.7828 26.5782C11.1683 26.9535 11.6327 27.2429 12.1442 27.4264C12.8197 27.6683 13.5306 27.8036 14.25 27.8272C15.485 27.8272 15.8333 27.8272 19 27.8272C22.1667 27.8272 22.515 27.8272 23.75 27.8272C24.4969 27.8201 25.2366 27.6844 25.935 27.4264C26.4464 27.2429 26.9109 26.9535 27.2963 26.5782C27.6818 26.2029 27.979 25.7506 28.1675 25.2527C28.4325 24.5727 28.5719 23.8524 28.5792 23.1252C28.5792 21.9227 28.5792 21.5835 28.5792 18.5002C28.5792 15.4168 28.5792 15.0777 28.5792 13.8752C28.5796 13.1472 28.44 12.4256 28.1675 11.7477V11.7631ZM19 24.3893C18.2065 24.3893 17.4207 24.2369 16.6878 23.9407C15.9549 23.6446 15.2892 23.2106 14.7288 22.6635C14.1684 22.1164 13.7244 21.4671 13.4221 20.7527C13.1199 20.0383 12.9654 19.2728 12.9675 18.5002C12.9675 17.3347 13.3226 16.1955 13.9879 15.2267C14.6532 14.2579 15.5988 13.5031 16.7049 13.0578C17.811 12.6125 19.028 12.4968 20.2016 12.7253C21.3753 12.9538 22.453 13.5162 23.2983 14.3414C24.1435 15.1665 24.7183 16.2173 24.9499 17.3607C25.1815 18.5041 25.0594 19.6887 24.5992 20.7646C24.139 21.8404 23.3613 22.7591 22.3646 23.4043C21.3679 24.0496 20.1969 24.3924 19 24.3893ZM25.3333 13.7672C24.9833 13.7312 24.6594 13.5703 24.424 13.3155C24.1886 13.0607 24.0583 12.7302 24.0583 12.3875C24.0583 12.0448 24.1886 11.7142 24.424 11.4594C24.6594 11.2047 24.9833 11.0437 25.3333 11.0077C25.6833 11.0437 26.0073 11.2047 26.2427 11.4594C26.4781 11.7142 26.6083 12.0448 26.6083 12.3875C26.6083 12.7302 26.4781 13.0607 26.2427 13.3155C26.0073 13.5703 25.6833 13.7312 25.3333 13.7672Z" fill="#332323"/>
</svg>
