<svg width="38" height="37" viewBox="0 0 38 37" fill="none" xmlns="http://www.w3.org/2000/svg">
<path d="M32.4108 3.08322H5.58916C5.28766 3.07915 4.98828 3.13294 4.70814 3.24153C4.42799 3.35012 4.17255 3.51138 3.95642 3.7161C3.74029 3.92082 3.56769 4.16499 3.44848 4.43466C3.32927 4.70434 3.26579 4.99424 3.26166 5.28781V31.712C3.26579 32.0055 3.32927 32.2954 3.44848 32.5651C3.56769 32.8348 3.74029 33.079 3.95642 33.2837C4.17255 33.4884 4.42799 33.6497 4.70814 33.7583C4.98828 33.8668 5.28766 33.9206 5.58916 33.9166H32.4108C32.7123 33.9206 33.0117 33.8668 33.2918 33.7583C33.572 33.6497 33.8274 33.4884 34.0436 33.2837C34.2597 33.079 34.4323 32.8348 34.5515 32.5651C34.6707 32.2954 34.7342 32.0055 34.7383 31.712V5.28781C34.7342 4.99424 34.6707 4.70434 34.5515 4.43466C34.4323 4.16499 34.2597 3.92082 34.0436 3.7161C33.8274 3.51138 33.572 3.35012 33.2918 3.24153C33.0117 3.13294 32.7123 3.07915 32.4108 3.08322ZM12.8092 28.8907H8.05916V15.0157H12.8092V28.8907ZM10.4342 13.0732C9.77907 13.0732 9.15082 12.8198 8.6876 12.3688C8.22439 11.9178 7.96416 11.3061 7.96416 10.6682C7.96416 10.0304 8.22439 9.41866 8.6876 8.96763C9.15082 8.51661 9.77907 8.26322 10.4342 8.26322C10.782 8.22481 11.1343 8.25837 11.4679 8.36171C11.8015 8.46505 12.1089 8.63583 12.37 8.86287C12.6312 9.08992 12.8401 9.3681 12.9831 9.67922C13.1262 9.99033 13.2001 10.3274 13.2001 10.6682C13.2001 11.0091 13.1262 11.3461 12.9831 11.6572C12.8401 11.9683 12.6312 12.2465 12.37 12.4736C12.1089 12.7006 11.8015 12.8714 11.4679 12.9747C11.1343 13.0781 10.782 13.1116 10.4342 13.0732ZM29.9408 28.8907H25.1908V21.4445C25.1908 19.5791 24.51 18.3611 22.7842 18.3611C22.25 18.3649 21.73 18.5281 21.294 18.8285C20.858 19.129 20.5271 19.5523 20.3458 20.0416C20.2219 20.4039 20.1682 20.7855 20.1875 21.167V28.8753H15.4375C15.4375 28.8753 15.4375 16.2645 15.4375 15.0003H20.1875V16.9582C20.619 16.2292 21.2466 15.6286 22.0027 15.2211C22.7588 14.8136 23.6147 14.6147 24.4783 14.6457C27.645 14.6457 29.9408 16.6345 29.9408 20.9049V28.8907Z" fill="#332323"/>
</svg>
