<svg width="39" height="37" viewBox="0 0 39 37" fill="none" xmlns="http://www.w3.org/2000/svg">
<path d="M37.375 14.9696C37.4554 12.763 36.9467 10.5728 35.8963 8.60254C35.1836 7.79408 34.1945 7.24851 33.1013 7.06087C28.5798 6.67164 24.0395 6.5121 19.5 6.58295C14.9771 6.50889 10.4532 6.66327 5.94754 7.04545C5.05675 7.19918 4.23239 7.59558 3.57504 8.18629C2.11254 9.46587 1.95004 11.655 1.78754 13.505C1.55178 16.8313 1.55178 20.1688 1.78754 23.495C1.83456 24.5363 1.99797 25.5699 2.27504 26.5784C2.47098 27.357 2.86739 28.0774 3.42879 28.675C4.0906 29.297 4.93417 29.716 5.85004 29.8775C9.35341 30.2878 12.8834 30.4578 16.4125 30.3863C22.1 30.4634 27.0888 30.3863 32.9875 29.9546C33.9259 29.803 34.7932 29.3835 35.4738 28.7521C35.9287 28.3203 36.2686 27.7918 36.465 27.2105C37.0462 25.5187 37.3316 23.748 37.31 21.9688C37.375 21.1055 37.375 15.8946 37.375 14.9696ZM15.8275 22.8938V13.3509L25.4475 18.1455C22.75 19.5638 19.1913 21.1671 15.8275 22.8938Z" fill="#332323"/>
</svg>
